<?xml version="1.0" encoding="UTF-8" standalone="no"?>
<svg
   height="32.009998"
   viewBox="0 0 10.01 16.004999"
   width="20.02"
   fill="#cbcbcb"
   version="1.1"
   id="svg6"
   sodipodi:docname="drag.svg"
   inkscape:version="1.1 (c68e22c387, 2021-05-23)"
   xmlns:inkscape="http://www.inkscape.org/namespaces/inkscape"
   xmlns:sodipodi="http://sodipodi.sourceforge.net/DTD/sodipodi-0.dtd"
   xmlns="http://www.w3.org/2000/svg"
   xmlns:svg="http://www.w3.org/2000/svg">
  <defs
     id="defs10" />
  <sodipodi:namedview
     id="namedview8"
     pagecolor="#cbcbcb"
     bordercolor="#666666"
     borderopacity="1.0"
     inkscape:pageshadow="2"
     inkscape:pageopacity="0.0"
     inkscape:pagecheckerboard="true"
     showgrid="false"
     width="20.02px"
     inkscape:zoom="32"
     inkscape:cx="11.890625"
     inkscape:cy="22.578125"
     inkscape:window-width="1920"
     inkscape:window-height="1017"
     inkscape:window-x="1912"
     inkscape:window-y="-8"
     inkscape:window-maximized="1"
     inkscape:current-layer="svg6" />
  <path
     d="M 0,0 H 24 V 24 H 0 Z"
     fill="none"
     id="path2" />
  <path
     d="m 4.006993,14.001953 c 0,1.1 -0.9,2 -2,2 -1.09999999,0 -1.99999999,-0.9 -1.99999999,-2 0,-1.1 0.9,-2 1.99999999,-2 1.1,0 2,0.9 2,2 z m -2,-7.9999999 c -1.09999999,0 -1.99999999,0.9 -1.99999999,2 0,1.1 0.9,1.9999999 1.99999999,1.9999999 1.1,0 2,-0.8999999 2,-1.9999999 0,-1.1 -0.9,-2 -2,-2 z m 0,-5.99999998 c -1.09999999,0 -1.99999999,0.9 -1.99999999,1.99999998 0,1.1 0.9,2 1.99999999,2 1.1,0 2,-0.9 2,-2 0,-1.09999998 -0.9,-1.99999998 -2,-1.99999998 z m 6,3.99999998 c 1.1,0 2,-0.9 2,-2 0,-1.09999998 -0.9,-1.99999998 -2,-1.99999998 -1.1,0 -2,0.9 -2,1.99999998 0,1.1 0.9,2 2,2 z m 0,2 c -1.1,0 -2,0.9 -2,2 0,1.1 0.9,1.9999999 2,1.9999999 1.1,0 2,-0.8999999 2,-1.9999999 0,-1.1 -0.9,-2 -2,-2 z m 0,5.9999999 c -1.1,0 -2,0.9 -2,2 0,1.1 0.9,2 2,2 1.1,0 2,-0.9 2,-2 0,-1.1 -0.9,-2 -2,-2 z"
     id="path4" />
</svg>
