<?xml version="1.0" encoding="UTF-8" standalone="no"?>
<svg
   enable-background="new 0 0 24 24"
   height="40"
   viewBox="0 0 19.5 20"
   width="39"
   fill="#ffffff"
   version="1.1"
   id="svg6"
   sodipodi:docname="settings.svg"
   inkscape:version="1.1 (c68e22c387, 2021-05-23)"
   xmlns:inkscape="http://www.inkscape.org/namespaces/inkscape"
   xmlns:sodipodi="http://sodipodi.sourceforge.net/DTD/sodipodi-0.dtd"
   xmlns="http://www.w3.org/2000/svg"
   xmlns:svg="http://www.w3.org/2000/svg">
  <defs
     id="defs10" />
  <sodipodi:namedview
     id="namedview8"
     pagecolor="#ffffff"
     bordercolor="#666666"
     borderopacity="1.0"
     inkscape:pageshadow="2"
     inkscape:pageopacity="0.0"
     inkscape:pagecheckerboard="true"
     showgrid="false"
     inkscape:zoom="5.6568543"
     inkscape:cx="23.776465"
     inkscape:cy="58.601474"
     inkscape:window-width="1920"
     inkscape:window-height="1017"
     inkscape:window-x="1912"
     inkscape:window-y="-8"
     inkscape:window-maximized="1"
     inkscape:current-layer="svg6" />
  <rect
     fill="none"
     height="24"
     width="24"
     id="rect2"
     x="0"
     y="0" />
  <path
     d="m 17.225639,10.002548 c 0,-0.2300003 -0.01,-0.4500003 -0.03,-0.6800003 l 1.86,-1.41 c 0.4,-0.3 0.51,-0.86 0.26,-1.3 l -1.87,-3.23 c -0.25,-0.44 -0.79,-0.62 -1.25,-0.42 l -2.15,0.91 c -0.37,-0.26 -0.76,-0.49 -1.17,-0.68 l -0.29,-2.31000002 c -0.06,-0.5 -0.49,-0.88 -0.99,-0.88 H 7.8656388 c -0.51,0 -0.94,0.38 -1,0.88 l -0.29,2.31000002 c -0.41,0.19 -0.8,0.42 -1.17,0.68 l -2.15,-0.91 c -0.46,-0.2 -1,-0.02 -1.25,0.42 l -1.87000006,3.24 c -0.25,0.44 -0.14,0.99 0.26,1.3 l 1.86000006,1.41 c -0.02,0.22 -0.03,0.44 -0.03,0.6700003 0,0.23 0.01,0.45 0.03,0.68 l -1.86000006,1.41 c -0.4,0.3 -0.51,0.86 -0.26,1.3 l 1.87000006,3.23 c 0.25,0.44 0.79,0.62 1.25,0.42 l 2.15,-0.91 c 0.37,0.26 0.76,0.49 1.17,0.68 l 0.29,2.31 c 0.06,0.5 0.49,0.88 0.99,0.88 h 3.7300002 c 0.5,0 0.93,-0.38 0.99,-0.88 l 0.29,-2.31 c 0.41,-0.19 0.8,-0.42 1.17,-0.68 l 2.15,0.91 c 0.46,0.2 1,0.02 1.25,-0.42 l 1.87,-3.23 c 0.25,-0.44 0.14,-0.99 -0.26,-1.3 l -1.86,-1.41 c 0.03,-0.23 0.04,-0.45 0.04,-0.68 z m -7.4600002,3.5 c -1.93,0 -3.5,-1.57 -3.5,-3.5 0,-1.9300003 1.57,-3.5000003 3.5,-3.5000003 1.9300002,0 3.5000002,1.57 3.5000002,3.5000003 0,1.93 -1.57,3.5 -3.5000002,3.5 z"
     id="path4" />
</svg>
